/* XPM */
static const char * qsynth_xpm[] = {
"32 32 327 2",
"  	c None",
". 	c #A25F32",
"+ 	c #6D5240",
"@ 	c #815F48",
"# 	c #B16836",
"$ 	c #8B664D",
"% 	c #96694B",
"& 	c #DA8043",
"* 	c #9F6844",
"= 	c #3E3E3E",
"- 	c #A2623A",
"; 	c #E98646",
"> 	c #AC6333",
", 	c #715E52",
"' 	c #6A6A6A",
") 	c #8F634A",
"! 	c #BD693A",
"~ 	c #EA854A",
"{ 	c #E27F44",
"] 	c #9E6643",
"^ 	c #454545",
"/ 	c #A35E3A",
"( 	c #EA8651",
"_ 	c #EB8952",
": 	c #EA854C",
"< 	c #AE6033",
"[ 	c #7C6050",
"} 	c #916149",
"| 	c #BD693E",
"1 	c #ED8C5A",
"2 	c #ED8E5C",
"3 	c #EC8752",
"4 	c #EB7F45",
"5 	c #A25F3A",
"6 	c #414141",
"7 	c #A45C3A",
"8 	c #EB8453",
"9 	c #EF9165",
"0 	c #EF9366",
"a 	c #ED8855",
"b 	c #EB7F47",
"c 	c #C76A3A",
"d 	c #92654C",
"e 	c #434343",
"f 	c #9D6645",
"g 	c #CF7241",
"h 	c #EF8D60",
"i 	c #F09A73",
"j 	c #F19B73",
"k 	c #EE8D5F",
"l 	c #EC7E48",
"m 	c #EB7D46",
"n 	c #A95A31",
"o 	c #6E594D",
"p 	c #AE6232",
"q 	c #F79658",
"r 	c #F7A26D",
"s 	c #F8AE82",
"t 	c #F2A482",
"u 	c #EF9368",
"v 	c #ED7E4A",
"w 	c #EC7D48",
"x 	c #E37844",
"y 	c #A35D39",
"z 	c #AA6A3D",
"A 	c #E98D50",
"B 	c #FAA369",
"C 	c #FAAF7F",
"D 	c #FAB88E",
"E 	c #F9B387",
"F 	c #F39A6C",
"G 	c #ED7F4D",
"H 	c #EC7E4B",
"I 	c #BF6539",
"J 	c #92644C",
"K 	c #424242",
"L 	c #996A47",
"M 	c #C9724D",
"N 	c #FCAA6A",
"O 	c #FCB076",
"P 	c #FCC093",
"Q 	c #FCBCA2",
"R 	c #FAB88F",
"S 	c #F89F68",
"T 	c #F1844D",
"U 	c #ED804E",
"V 	c #A95A32",
"W 	c #6D584D",
"X 	c #B07441",
"Y 	c #FDAB62",
"Z 	c #FFB877",
"` 	c #FEBC82",
" .	c #FDC99C",
"..	c #FDCBA2",
"+.	c #FBC196",
"@.	c #F99969",
"#.	c #F78C4C",
"$.	c #ED8151",
"%.	c #3F3F3F",
"&.	c #A4774B",
"*.	c #E99F54",
"=.	c #FFB971",
"-.	c #FFC386",
";.	c #FFCA98",
">.	c #FFD0A8",
",.	c #FDCEA5",
"'.	c #FDC393",
").	c #FAA361",
"!.	c #F88D57",
"~.	c #F68A4C",
"{.	c #ED8050",
"].	c #ED7F4C",
"^.	c #EC7E49",
"/.	c #BA6237",
"(.	c #88634E",
"_.	c #B37C3F",
":.	c #FFB866",
"<.	c #FFC685",
"[.	c #FFD1A0",
"}.	c #FFD9B3",
"|.	c #FFD9B8",
"1.	c #FFD2AD",
"2.	c #FDBE8A",
"3.	c #FBA560",
"4.	c #FA9C5A",
"5.	c #F78E4E",
"6.	c #EE8252",
"7.	c #ED7F4E",
"8.	c #EB7C46",
"9.	c #A15C39",
"0.	c #9B764C",
"a.	c #D69A4F",
"b.	c #FFC375",
"c.	c #FFD39C",
"d.	c #FFE0B9",
"e.	c #FFE6CB",
"f.	c #FFE3C6",
"g.	c #FFD6B2",
"h.	c #FEBB84",
"i.	c #FCA661",
"j.	c #FAA25D",
"k.	c #FA8B61",
"l.	c #F18650",
"m.	c #ED804F",
"n.	c #E77A46",
"o.	c #B25F34",
"p.	c #86614E",
"q.	c #585858",
"r.	c #AD8048",
"s.	c #FDBB64",
"t.	c #FFCA80",
"u.	c #FFDEAA",
"v.	c #FFEACA",
"w.	c #FFF0DA",
"x.	c #FFE9D1",
"y.	c #FFD8B4",
"z.	c #FFBD86",
"A.	c #FDAA66",
"B.	c #FAA35E",
"C.	c #F89959",
"D.	c #F4894E",
"E.	c #ED7E4B",
"F.	c #E07644",
"G.	c #DB7441",
"H.	c #975D3E",
"I.	c #474747",
"J.	c #B78141",
"K.	c #FFBE67",
"L.	c #FFCF82",
"M.	c #FFE9AD",
"N.	c #FFF0CF",
"O.	c #FFF3DC",
"P.	c #FFEBD0",
"Q.	c #FFD5AE",
"R.	c #FFBC83",
"S.	c #FDAA68",
"T.	c #FBA45E",
"U.	c #F58B4E",
"V.	c #ED8150",
"W.	c #DC7443",
"X.	c #D5703F",
"Y.	c #9B532D",
"Z.	c #FFBD65",
"`.	c #FFC97D",
" +	c #FFDA9E",
".+	c #FFE5BD",
"++	c #FFE0BD",
"@+	c #FFCD9E",
"#+	c #FFB87D",
"$+	c #EB7D4B",
"%+	c #D77041",
"&+	c #CD6C3C",
"*+	c #98502C",
"=+	c #484848",
"-+	c #6B6B6B",
";+	c #B07C43",
">+	c #FFB85F",
",+	c #FFC170",
"'+	c #FFCB88",
")+	c #FFD49E",
"!+	c #FFD6A8",
"~+	c #FFCF9E",
"{+	c #FFC088",
"]+	c #FEB070",
"^+	c #E47A48",
"/+	c #C8693D",
"(+	c #BE6338",
"_+	c #8D5131",
":+	c #666666",
"<+	c #A97949",
"[+	c #F6AB57",
"}+	c #FFB763",
"|+	c #FFBC70",
"1+	c #FFC17D",
"2+	c #FFC182",
"3+	c #FFBB7D",
"4+	c #FFB270",
"5+	c #FDA963",
"6+	c #EB7E4D",
"7+	c #D47042",
"8+	c #B65E36",
"9+	c #A55530",
"0+	c #84563E",
"a+	c #505050",
"b+	c #656565",
"c+	c #906545",
"d+	c #CB8545",
"e+	c #FFAF5B",
"f+	c #FFB05F",
"g+	c #FFB365",
"h+	c #FFB167",
"i+	c #FFAD65",
"j+	c #FDA85F",
"k+	c #FCA55D",
"l+	c #FA9F5A",
"m+	c #EC7F4F",
"n+	c #DF7647",
"o+	c #C1643B",
"p+	c #AA5632",
"q+	c #834425",
"r+	c #71584A",
"s+	c #636363",
"t+	c #686868",
"u+	c #AF683E",
"v+	c #FDA154",
"w+	c #FFA859",
"x+	c #FFA95B",
"y+	c #FEA75B",
"z+	c #FDA65B",
"A+	c #FCA35C",
"B+	c #FA9D58",
"C+	c #F98D57",
"D+	c #E3794A",
"E+	c #CA693F",
"F+	c #AF5A34",
"G+	c #A5542F",
"H+	c #7F472B",
"I+	c #464646",
"J+	c #6F6F6F",
"K+	c #996A48",
"L+	c #BF6F37",
"M+	c #F88B5D",
"N+	c #F19652",
"O+	c #F49852",
"P+	c #FA9B55",
"Q+	c #FB8D5F",
"R+	c #F78E4C",
"S+	c #F58A4A",
"T+	c #EA804A",
"U+	c #D97348",
"V+	c #C7683F",
"W+	c #B35C36",
"X+	c #A2522F",
"Y+	c #844426",
"Z+	c #795948",
"`+	c #575757",
" @	c #A36A42",
".@	c #B96935",
"+@	c #E07F42",
"@@	c #DA7C42",
"#@	c #DC7C43",
"$@	c #DB7B43",
"%@	c #DB7A41",
"&@	c #D77444",
"*@	c #CB6B43",
"=@	c #BB613B",
"-@	c #AC5734",
";@	c #A25230",
">@	c #824325",
",@	c #7E523B",
"'@	c #4A4A4A",
")@	c #6E6E6E",
"!@	c #9A6340",
"~@	c #AB5E30",
"{@	c #CE713B",
"]@	c #C46B39",
"^@	c #BF6738",
"/@	c #B75F3D",
"(@	c #B75F3B",
"_@	c #AD5836",
":@	c #A25231",
"<@	c #A0512F",
"[@	c #814125",
"}@	c #916145",
"|@	c #934E2B",
"1@	c #A25434",
"2@	c #B05B38",
"3@	c #AB5835",
"4@	c #A85633",
"5@	c #A45331",
"6@	c #904829",
"7@	c #773D21",
"8@	c #7C5641",
"9@	c #696969",
"0@	c #727272",
"a@	c #5A4D47",
"b@	c #865A45",
"c@	c #864A30",
"d@	c #834326",
"e@	c #814225",
"f@	c #7D462B",
"g@	c #7A533F",
"h@	c #574E49",
"i@	c #4E4E4E",
"j@	c #717171",
"k@	c #545454",
"l@	c #6D6D6D",
"                                                                ",
"                                                                ",
"                              . +                               ",
"                            @ # $                               ",
"                            % & * =                             ",
"                            - ; > , '                           ",
"                          ) ! ~ { ] ^                           ",
"                          / ( _ : < [                           ",
"                        } | 1 2 3 4 5 6                         ",
"                        7 8 9 0 a b c d e                       ",
"                      f g h i j k l m n o                       ",
"                      p q r s t u v w x y =                     ",
"                    z A B C D E F G H w I J K                   ",
"                  L M N O P Q R S T U H w V W                   ",
"                  X Y Z `  ...+.@.#.$.G v x y %.                ",
"                &.*.=.-.;.>.,.'.).!.~.{.].^./.(.                ",
"                _.:.<.[.}.|.1.2.3.4.5.6.7.v 8.9.e               ",
"              0.a.b.c.d.e.f.g.h.i.j.k.l.m.H n.o.p.q.            ",
"              r.s.t.u.v.w.x.y.z.A.B.C.D.{.E.F.G.H.I.            ",
"              J.K.L.M.N.O.P.Q.R.S.T.C.U.V.].W.X.Y.I.            ",
"              J.Z.`. +.+v.++@+#+A.B.C.D.{.$+%+&+*+=+-+          ",
"              ;+>+,+'+)+!+~+{+]+i.j.k.l.m.^+/+(+_+I.:+          ",
"              <+[+}+|+1+2+3+4+5+T.4.5.6.6+7+8+9+0+a+b+          ",
"              c+d+e+f+g+h+i+j+k+l+!.~.m+n+o+p+q+r+s+t+          ",
"                u+v+w+x+y+z+A+B+C+#.V.D+E+F+G+H+I+' J+          ",
"                K+L+M+N+O+P+Q+R+S+T+U+V+W+X+Y+Z+`+-+            ",
"                   @.@+@@@#@$@%@&@*@=@-@;@>@,@'@t+)@            ",
"                    !@~@{@]@^@/@(@_@:@<@[@,@I.b+-+              ",
"                      }@|@1@2@3@4@5@6@7@8@I.b+9@0@              ",
"                        a@b@c@d@e@f@g@h@i@b+' j@                ",
"                          i@I+=+=+=+k@:+' )@                    ",
"                              l@9@b+b+9@l@                      "};
